<?xml version="1.0" encoding="iso-8859-1"?>
<!-- Generator: Adobe Illustrator 19.0.0, SVG Export Plug-In . SVG Version: 6.00 Build 0)  -->
<svg version="1.1" id="Capa_1" xmlns="http://www.w3.org/2000/svg" xmlns:xlink="http://www.w3.org/1999/xlink" x="0px" y="0px"
	 viewBox="0 0 452.096 452.096" style="enable-background:new 0 0 452.096 452.096; fill: #C83C0E" xml:space="preserve">
<g>
	<g>
		<path d="M437.248,162.048h-30.72v-23.04c0-8.483-6.877-15.36-15.36-15.36h-6.656C368.857,51.63,305.124,0.26,231.424,0.256h-10.24
			C147.484,0.26,83.751,51.63,68.096,123.648H61.44c-8.483,0-15.36,6.877-15.36,15.36v23.04H15.36c-8.483,0-15.36,6.877-15.36,15.36
			v73.728c0,8.483,6.877,15.36,15.36,15.36h30.208v23.04c0,8.483,6.877,15.36,15.36,15.36h3.584v57.344
			c0,4.835,2.276,9.387,6.144,12.288l101.888,74.24c2.659,1.994,5.893,3.072,9.216,3.072h89.088c3.323,0,6.557-1.078,9.216-3.072
			L381.44,375.04c3.868-2.901,6.144-7.453,6.144-12.288v-57.856h3.584c8.483,0,15.36-6.877,15.36-15.36v-23.04h30.208
			c8.483,0,15.36-6.877,15.36-15.36v-73.728C452.101,169.121,445.53,162.324,437.248,162.048z M375.808,274.176H265.216
			l-26.112-39.424c-4.689-7.069-14.221-8.999-21.291-4.309c-1.71,1.134-3.175,2.599-4.309,4.309l-26.112,39.424H76.8V154.368
			h299.008V274.176z"/>
	</g>
</g>
<g>
</g>
<g>
</g>
<g>
</g>
<g>
</g>
<g>
</g>
<g>
</g>
<g>
</g>
<g>
</g>
<g>
</g>
<g>
</g>
<g>
</g>
<g>
</g>
<g>
</g>
<g>
</g>
<g>
</g>
</svg>